<svg width="140" height="156" viewBox="0 0 140 156" fill="none" xmlns="http://www.w3.org/2000/svg">
<g clip-path="url(#clip0_32_2)">
<path d="M0.294922 150.845V141.961H3.31025V142.718H0.867634V145.976H3.12841V146.718H0.867634V150.095H3.4477V150.845H0.294922Z" fill="black"/>
<path d="M4.65039 150.845V141.961H6.27689C7.33498 141.961 8.13391 142.326 8.67512 143.055C9.2149 143.785 9.48551 144.86 9.48551 146.286C9.48551 146.969 9.40963 147.596 9.25929 148.154C9.10895 148.716 8.88989 149.197 8.60497 149.595C8.32004 149.993 7.97498 150.3 7.56979 150.519C7.1646 150.736 6.70643 150.845 6.19814 150.845H4.65039ZM5.22453 142.718V150.093H6.1738C6.59904 150.093 6.9799 150.011 7.31493 149.847C7.64997 149.681 7.93346 149.436 8.16684 149.117C8.40022 148.798 8.57776 148.403 8.69946 147.932C8.82116 147.46 8.88273 146.92 8.88273 146.309C8.88273 143.914 8.00075 142.716 6.23823 142.716L5.22453 142.718Z" fill="black"/>
<path d="M15.0079 147.277C15.0079 149.757 14.2476 151 12.7299 151C11.2824 151 10.5593 149.802 10.5593 147.414V141.961H11.1335V147.337C11.1335 148.313 11.2695 149.043 11.543 149.525C11.8164 150.007 12.2388 150.249 12.8115 150.249C13.8925 150.249 14.4337 149.307 14.4337 147.426V141.961H15.0079V147.277Z" fill="black"/>
<path d="M20.6047 150.516C20.1279 150.838 19.5824 151 18.9696 151C18.5329 151 18.1349 150.888 17.7784 150.669C17.4219 150.446 17.1183 150.14 16.8663 149.747C16.6143 149.355 16.4196 148.887 16.2836 148.347C16.1476 147.806 16.0789 147.216 16.0789 146.578C16.0789 145.903 16.1519 145.277 16.2965 144.697C16.4411 144.116 16.6501 143.612 16.9207 143.186C17.1899 142.758 17.5178 142.423 17.9029 142.181C18.2867 141.938 18.7176 141.813 19.1944 141.813C19.7213 141.813 20.1909 141.929 20.6047 142.164V143.041C20.1623 142.722 19.6884 142.563 19.1858 142.563C18.7864 142.563 18.4313 142.663 18.1191 142.861C17.8084 143.058 17.5479 143.335 17.3345 143.687C17.1226 144.04 16.9594 144.456 16.8477 144.939C16.7346 145.42 16.6788 145.945 16.6788 146.514C16.6788 147.028 16.7289 147.508 16.8291 147.961C16.9293 148.414 17.0782 148.809 17.2758 149.147C17.4734 149.488 17.7182 149.755 18.0118 149.953C18.3053 150.154 18.646 150.25 19.0341 150.25C19.6297 150.25 20.1523 150.071 20.6047 149.712V150.516Z" fill="black"/>
<path d="M25.8451 150.845L25.1635 148.218H22.5104L21.8461 150.845H21.2075L23.5628 141.961H24.1412L26.4851 150.845H25.8451ZM23.9594 143.517C23.9394 143.438 23.9193 143.348 23.8978 143.244C23.8764 143.139 23.8577 143.024 23.8434 142.89H23.8262C23.8091 143.024 23.789 143.139 23.7675 143.244C23.7461 143.346 23.7246 143.438 23.7045 143.517L22.7037 147.468H24.9688L23.9594 143.517Z" fill="black"/>
<path d="M29.1395 142.718V150.845H28.5653V142.718H26.7842V141.961H30.9263V142.718H29.1395Z" fill="black"/>
<path d="M32.4299 150.845H31.8557V141.961H32.4299V150.845Z" fill="black"/>
<path d="M36.4702 150.999C36.0235 150.999 35.6226 150.88 35.2661 150.649C34.9096 150.415 34.606 150.096 34.3583 149.692C34.1092 149.287 33.9173 148.811 33.7842 148.263C33.651 147.716 33.5837 147.129 33.5837 146.5C33.5837 145.808 33.6496 145.171 33.7842 144.594C33.9188 144.02 34.1121 143.527 34.3684 143.114C34.6246 142.704 34.9382 142.385 35.309 142.158C35.6799 141.927 36.1037 141.811 36.5776 141.811C37.0157 141.811 37.408 141.923 37.7559 142.151C38.1024 142.377 38.3988 142.687 38.6436 143.085C38.8885 143.483 39.076 143.958 39.2078 144.501C39.3381 145.045 39.4039 145.637 39.4039 146.279C39.4039 146.952 39.3395 147.577 39.2121 148.151C39.0832 148.728 38.8956 149.226 38.6465 149.646C38.3974 150.068 38.091 150.4 37.7259 150.638C37.3636 150.877 36.9441 150.999 36.4702 150.999ZM36.5175 142.562C36.1423 142.562 35.8116 142.665 35.5238 142.869C35.2346 143.072 34.9912 143.349 34.7922 143.698C34.5931 144.046 34.4428 144.454 34.3412 144.923C34.2395 145.394 34.188 145.892 34.1851 146.421C34.1808 146.922 34.2266 147.406 34.3211 147.868C34.4142 148.327 34.5545 148.735 34.7435 149.086C34.9325 149.438 35.1702 149.721 35.4579 149.931C35.7457 150.141 36.0822 150.247 36.4673 150.247C36.8525 150.247 37.1918 150.152 37.4839 149.958C37.7746 149.766 38.0194 149.502 38.2155 149.158C38.4103 148.817 38.5577 148.413 38.658 147.943C38.7582 147.473 38.8069 146.958 38.8069 146.402C38.8069 145.879 38.7639 145.388 38.6751 144.919C38.5864 144.454 38.4518 144.046 38.2657 143.698C38.0795 143.349 37.8433 143.072 37.5569 142.869C37.2663 142.666 36.9198 142.562 36.5175 142.562Z" fill="black"/>
<path d="M44.7918 150.845L41.3584 143.715C41.3155 143.623 41.2725 143.533 41.231 143.435C41.1895 143.34 41.1551 143.25 41.1294 143.158H41.1079C41.1136 143.231 41.1193 143.334 41.1236 143.468C41.1279 143.598 41.1294 143.762 41.1294 143.963V150.843H40.5566V141.96H41.1909L44.5685 149.001C44.62 149.113 44.6658 149.217 44.7088 149.314C44.7518 149.41 44.789 149.502 44.8233 149.584H44.8448C44.8334 149.447 44.8248 149.295 44.819 149.125C44.8119 148.959 44.809 148.769 44.809 148.564V141.96H45.3875V150.843L44.7918 150.845Z" fill="black"/>
<path d="M50.9111 150.845L50.2282 148.218H47.5737L46.9093 150.845H46.2708L48.6275 141.961H49.2059L51.5483 150.845H50.9111ZM49.0255 143.517C49.0055 143.438 48.9854 143.348 48.9625 143.244C48.941 143.141 48.9238 143.024 48.9095 142.89H48.8909C48.8737 143.024 48.8551 143.139 48.8336 143.244C48.8107 143.346 48.7907 143.438 48.7706 143.517L47.7698 147.468H50.0349L49.0255 143.517Z" fill="black"/>
<path d="M52.436 150.845V141.961H53.0087V150.095H55.4943V150.845H52.436Z" fill="black"/>
<path d="M62.9423 150.516C62.4641 150.838 61.9186 151 61.3058 151C60.8677 151 60.4711 150.888 60.1146 150.669C59.758 150.446 59.4545 150.14 59.2025 149.747C58.9505 149.355 58.7558 148.887 58.6198 148.347C58.4838 147.807 58.415 147.216 58.415 146.578C58.415 145.903 58.4881 145.277 58.6312 144.697C58.7773 144.116 58.9849 143.612 59.2555 143.186C59.5261 142.758 59.854 142.423 60.2377 142.181C60.6228 141.938 61.0524 141.813 61.5306 141.813C62.0561 141.813 62.5257 141.929 62.9409 142.164V143.041C62.497 142.722 62.0231 142.563 61.5206 142.563C61.1211 142.563 60.766 142.663 60.4553 142.861C60.1446 143.058 59.884 143.335 59.6707 143.687C59.4574 144.04 59.2942 144.456 59.1825 144.939C59.0708 145.42 59.015 145.945 59.015 146.514C59.015 147.028 59.0651 147.508 59.1653 147.961C59.2655 148.414 59.4144 148.809 59.612 149.147C59.8096 149.488 60.0544 149.755 60.3479 149.953C60.6415 150.154 60.9822 150.25 61.3702 150.25C61.9659 150.25 62.4899 150.071 62.9423 149.712V150.516Z" fill="black"/>
<path d="M66.6936 150.999C66.2469 150.999 65.846 150.88 65.4895 150.649C65.133 150.415 64.8294 150.096 64.5817 149.692C64.3326 149.287 64.1407 148.811 64.0076 148.263C63.8744 147.716 63.8071 147.129 63.8071 146.5C63.8071 145.808 63.873 145.171 64.0076 144.594C64.1422 144.02 64.3355 143.527 64.5917 143.114C64.848 142.704 65.1616 142.385 65.5324 142.158C65.9033 141.927 66.3271 141.811 66.801 141.811C67.2391 141.811 67.6314 141.923 67.9793 142.151C68.3258 142.377 68.6222 142.687 68.867 143.085C69.1119 143.483 69.2994 143.958 69.4312 144.501C69.5615 145.045 69.6273 145.637 69.6273 146.279C69.6273 146.952 69.5629 147.577 69.4355 148.151C69.3066 148.728 69.119 149.226 68.8699 149.646C68.6208 150.068 68.3144 150.4 67.9493 150.638C67.587 150.877 67.1675 150.999 66.6936 150.999ZM66.7423 142.562C66.3672 142.562 66.0364 142.665 65.7486 142.869C65.4594 143.072 65.216 143.349 65.017 143.698C64.818 144.046 64.6676 144.454 64.566 144.923C64.4643 145.394 64.4128 145.892 64.4099 146.421C64.4056 146.922 64.4514 147.406 64.5459 147.868C64.639 148.327 64.7793 148.735 64.9683 149.086C65.1573 149.438 65.395 149.721 65.6828 149.931C65.9705 150.141 66.307 150.247 66.6922 150.247C67.0773 150.247 67.4166 150.152 67.7087 149.958C67.9994 149.766 68.2442 149.502 68.4404 149.158C68.6351 148.817 68.7826 148.413 68.8828 147.943C68.983 147.473 69.0317 146.958 69.0317 146.402C69.0317 145.879 68.9887 145.388 68.9 144.919C68.8112 144.454 68.6766 144.046 68.4905 143.698C68.3043 143.349 68.0681 143.072 67.7817 142.869C67.4897 142.666 67.1446 142.562 66.7423 142.562Z" fill="black"/>
<path d="M75.0152 150.845L71.5818 143.715C71.5389 143.623 71.4959 143.533 71.4544 143.435C71.4129 143.34 71.3785 143.25 71.3527 143.158H71.3313C71.337 143.231 71.3427 143.334 71.347 143.468C71.3513 143.598 71.3527 143.762 71.3527 143.963V150.843H70.78V141.96H71.4143L74.7919 149.001C74.8434 149.113 74.8892 149.217 74.9322 149.314C74.9751 149.41 75.0124 149.502 75.0467 149.584H75.0682C75.0568 149.447 75.0482 149.295 75.0424 149.125C75.0353 148.959 75.0324 148.769 75.0324 148.564V141.96H75.6108V150.843L75.0152 150.845Z" fill="black"/>
<path d="M76.885 149.544C76.9881 149.653 77.1026 149.754 77.2272 149.844C77.3532 149.933 77.4806 150.006 77.6123 150.066C77.744 150.127 77.8758 150.172 78.0061 150.203C78.1392 150.234 78.2666 150.248 78.3869 150.248C78.8551 150.248 79.2059 150.118 79.4393 149.859C79.6727 149.598 79.7886 149.225 79.7886 148.738C79.7886 148.501 79.76 148.297 79.7056 148.121C79.6512 147.946 79.5653 147.781 79.4507 147.63C79.3362 147.479 79.1901 147.326 79.014 147.174C78.8394 147.024 78.6317 146.855 78.3926 146.663C78.1278 146.457 77.9015 146.262 77.7125 146.08C77.5235 145.895 77.3703 145.707 77.2515 145.515C77.1327 145.324 77.0439 145.117 76.9881 144.893C76.9322 144.67 76.9036 144.415 76.9036 144.133C76.9036 143.772 76.9566 143.45 77.0625 143.167C77.1685 142.881 77.3131 142.638 77.4935 142.437C77.6753 142.237 77.8872 142.084 78.1292 141.975C78.3726 141.869 78.6332 141.813 78.9081 141.813C79.3949 141.813 79.8015 141.911 80.1308 142.106V143.018C79.7643 142.717 79.3362 142.565 78.8451 142.565C78.6604 142.565 78.4886 142.598 78.3253 142.663C78.1636 142.727 78.0204 142.822 77.8987 142.943C77.7755 143.068 77.6796 143.223 77.6095 143.405C77.5393 143.59 77.5035 143.804 77.5035 144.046C77.5035 144.277 77.5278 144.477 77.5751 144.645C77.6223 144.813 77.6997 144.971 77.8042 145.12C77.9087 145.269 78.0476 145.414 78.218 145.56C78.3898 145.71 78.5988 145.876 78.8451 146.064C79.1042 146.265 79.3305 146.457 79.5237 146.645C79.7156 146.833 79.876 147.028 80.0048 147.235C80.1322 147.438 80.2282 147.655 80.2912 147.885C80.3542 148.112 80.3857 148.369 80.3857 148.647C80.3857 149.036 80.3356 149.377 80.2353 149.674C80.1351 149.968 79.9934 150.213 79.8115 150.407C79.6311 150.602 79.4149 150.748 79.1644 150.848C78.9152 150.946 78.6403 150.997 78.3411 150.997C78.2437 150.997 78.1278 150.984 77.9917 150.961C77.8557 150.939 77.7211 150.907 77.5823 150.863C77.4434 150.82 77.3131 150.768 77.1885 150.708C77.0625 150.647 76.9623 150.583 76.8835 150.513L76.885 149.544Z" fill="black"/>
<path d="M85.9527 147.277C85.9527 149.757 85.1938 151 83.6747 151C82.2272 151 81.5027 149.802 81.5027 147.414V141.961H82.0768V147.337C82.0768 148.313 82.2128 149.043 82.4863 149.525C82.7584 150.009 83.1822 150.249 83.7549 150.249C84.8373 150.249 85.3771 149.307 85.3771 147.426V141.961H85.9512V147.277H85.9527Z" fill="black"/>
<path d="M87.3901 150.845V141.961H87.9629V150.095H90.4484V150.845H87.3901Z" fill="black"/>
<path d="M93.1758 142.718V150.845H92.6031V142.718H90.8206V141.961H94.9641V142.718H93.1758Z" fill="black"/>
<path d="M99.8994 150.845L99.2165 148.218H96.562L95.8976 150.845H95.259L97.6157 141.961H98.1942L100.537 150.845H99.8994ZM98.0124 143.517C97.9923 143.438 97.9723 143.348 97.9494 143.244C97.9279 143.141 97.9107 143.024 97.8964 142.89H97.8778C97.8606 143.024 97.842 143.139 97.8205 143.244C97.7976 143.346 97.7775 143.438 97.7575 143.517L96.7567 147.468H99.0218L98.0124 143.517Z" fill="black"/>
<path d="M105.661 150.845L102.228 143.715C102.185 143.623 102.142 143.533 102.1 143.435C102.059 143.34 102.024 143.25 101.998 143.158H101.977C101.983 143.231 101.988 143.334 101.993 143.468C101.997 143.598 101.998 143.762 101.998 143.963V150.843H101.426V141.96H102.06L105.438 149.001C105.489 149.113 105.535 149.217 105.578 149.314C105.621 149.41 105.658 149.502 105.692 149.584H105.714C105.703 149.447 105.694 149.295 105.688 149.125C105.681 148.959 105.678 148.769 105.678 148.564V141.96H106.257V150.843L105.661 150.845Z" fill="black"/>
<path d="M111.932 150.516C111.454 150.838 110.908 151 110.296 151C109.857 151 109.461 150.888 109.104 150.669C108.748 150.446 108.444 150.14 108.192 149.747C107.94 149.355 107.746 148.887 107.61 148.347C107.474 147.807 107.405 147.216 107.405 146.578C107.405 145.903 107.478 145.277 107.621 144.697C107.767 144.116 107.975 143.612 108.245 143.186C108.516 142.758 108.844 142.423 109.227 142.181C109.613 141.938 110.042 141.813 110.52 141.813C111.046 141.813 111.515 141.929 111.931 142.164V143.041C111.487 142.722 111.013 142.563 110.51 142.563C110.111 142.563 109.756 142.663 109.445 142.861C109.134 143.058 108.874 143.335 108.66 143.687C108.447 144.04 108.284 144.456 108.172 144.939C108.061 145.42 108.005 145.945 108.005 146.514C108.005 147.028 108.055 147.508 108.155 147.961C108.255 148.414 108.404 148.809 108.602 149.147C108.799 149.488 109.044 149.755 109.338 149.953C109.631 150.154 109.972 150.25 110.36 150.25C110.956 150.25 111.48 150.071 111.932 149.712V150.516Z" fill="black"/>
<path d="M115.023 147.516V150.845H114.449V147.535L112.509 141.961H113.161L114.575 146.113C114.593 146.161 114.615 146.237 114.644 146.335C114.674 146.435 114.708 146.561 114.747 146.712H114.761C114.779 146.639 114.802 146.55 114.834 146.454C114.866 146.354 114.905 146.244 114.95 146.119L116.431 141.961H117.044L115.023 147.516Z" fill="black"/>
<path d="M125.57 150.844H124.97L123.646 144.26C123.614 144.104 123.588 143.953 123.57 143.81C123.55 143.664 123.54 143.524 123.538 143.388H123.52C123.508 143.628 123.467 143.914 123.395 144.249L122.022 150.846H121.423L119.598 141.963H120.236L121.6 148.932C121.631 149.085 121.657 149.229 121.675 149.369C121.694 149.506 121.708 149.64 121.72 149.768H121.738C121.756 149.583 121.803 149.302 121.882 148.932L123.331 141.963H123.783L125.142 148.955C125.169 149.096 125.19 149.236 125.212 149.369C125.232 149.503 125.246 149.634 125.259 149.762H125.276C125.282 149.679 125.294 149.586 125.311 149.481C125.328 149.379 125.347 149.262 125.371 149.134L126.725 141.963H127.351L125.57 150.844Z" fill="black"/>
<path d="M128.392 150.969C128.277 150.969 128.18 150.908 128.098 150.793C128.018 150.678 127.978 150.538 127.978 150.373C127.978 150.203 128.017 150.06 128.097 149.945C128.176 149.83 128.274 149.772 128.392 149.772C128.449 149.772 128.503 149.788 128.554 149.818C128.604 149.85 128.647 149.891 128.685 149.942C128.724 149.993 128.753 150.057 128.776 150.13C128.798 150.207 128.81 150.286 128.81 150.373C128.81 150.456 128.797 150.535 128.776 150.603C128.751 150.676 128.723 150.74 128.685 150.792C128.648 150.846 128.604 150.89 128.554 150.919C128.503 150.949 128.449 150.969 128.392 150.969Z" fill="black"/>
<path d="M130.077 150.845V141.961H130.65V150.095H133.135V150.845H130.077Z" fill="black"/>
<path d="M134.257 150.969C134.142 150.969 134.045 150.908 133.963 150.793C133.883 150.678 133.843 150.538 133.843 150.373C133.843 150.203 133.881 150.06 133.962 149.945C134.04 149.83 134.139 149.772 134.257 149.772C134.314 149.772 134.368 149.788 134.418 149.818C134.468 149.85 134.511 149.891 134.55 149.942C134.589 149.993 134.617 150.057 134.64 150.13C134.663 150.207 134.675 150.286 134.675 150.373C134.675 150.456 134.662 150.535 134.64 150.603C134.616 150.676 134.587 150.74 134.55 150.792C134.513 150.846 134.468 150.89 134.418 150.919C134.368 150.949 134.314 150.969 134.257 150.969Z" fill="black"/>
<path d="M135.942 150.845V141.961H136.514V150.095H139V150.845H135.942Z" fill="black"/>
<path d="M9.63158 129.447H3.83144V136.092H0V119.971H3.83144V126.104H9.63158V119.971H13.463V136.092H9.63158V129.447Z" fill="#0C4C43"/>
<path d="M16.4197 130.069V119.971H20.2526V130.069C20.2526 131.896 21.2147 133.008 22.804 133.008C24.3933 133.008 25.3654 131.896 25.3654 130.069V119.971H29.1983V130.069C29.1983 134.032 26.78 136.452 22.804 136.452C18.8279 136.452 16.4197 134.032 16.4197 130.069Z" fill="#0C4C43"/>
<path d="M32.1621 119.971H38.7912C42.1817 119.971 44.2521 121.962 44.2521 125.214C44.2521 127.499 43.2269 129.157 41.4443 129.948L44.7016 136.092H40.2645L37.4053 130.458H35.9936V136.092H32.1621V119.971ZM38.1355 127.474C39.5386 127.474 40.3791 126.616 40.3791 125.214C40.3791 123.812 39.5386 122.955 38.1355 122.955H35.9936V127.474H38.1355Z" fill="#0C4C43"/>
<path d="M47.011 119.971H53.6401C57.032 119.971 59.1009 121.962 59.1009 125.214C59.1009 127.499 58.0757 129.157 56.2932 129.948L59.5505 136.092H55.1134L52.2556 130.458H50.8424V136.092H47.0095L47.011 119.971ZM52.9843 127.474C54.3875 127.474 55.2279 126.616 55.2279 125.214C55.2279 123.812 54.3875 122.955 52.9843 122.955H50.8438V127.474H52.9843Z" fill="#0C4C43"/>
<path d="M65.7145 119.971H70.6842L75.5207 136.092H71.4931L70.6226 132.607H65.776L64.9055 136.092H60.8779L65.7145 119.971ZM69.8638 129.601L68.2043 122.943L66.5335 129.601H69.8638Z" fill="#0C4C43"/>
<path d="M82.23 133.388L89.2901 123.321H82.323V119.971H93.6957V122.675L86.6356 132.741H93.9205V136.092H82.23V133.388Z" fill="#E09717"/>
<path d="M95.5427 128.031C95.5427 122.798 98.2874 119.614 102.788 119.614C107.288 119.614 110.031 122.798 110.031 128.031C110.031 133.263 107.296 136.452 102.788 136.452C98.2789 136.452 95.5427 133.266 95.5427 128.031ZM102.786 133.008C104.865 133.008 106.125 131.127 106.125 128.031C106.125 124.934 104.865 123.056 102.786 123.056C100.707 123.056 99.4458 124.937 99.4458 128.031C99.4458 131.124 100.706 133.008 102.786 133.008Z" fill="#E09717"/>
<path d="M112.585 119.971H115.689L121.929 129.279V119.971H125.556V136.092H122.452L116.212 126.784V136.092H112.585V119.971Z" fill="#E09717"/>
<path d="M128.747 119.971H138.901V123.31H132.58V126.45H138.532V129.514H132.58V132.753H138.901V136.092H128.747V119.971Z" fill="#E09717"/>
<path d="M59.5647 44.1173L80.3026 55.7981L80.4271 55.5305L59.6936 43.8481" fill="#1B6658"/>
<path d="M59.5205 75.105L81.9994 87.1468L82.1226 86.8792L59.6465 74.8374" fill="#D68B13"/>
<path d="M40.9202 59.6977L60.1189 75.1626V44.0864L40.9202 59.651V59.6977Z" fill="#135B4F"/>
<path d="M60.1192 14.7622L40.9434 30.722L60.1192 44.0381V14.7622Z" fill="#228773"/>
<path d="M40.9202 92.8961V93.0346L60.1189 109.06V75.2061L40.9202 92.8961Z" fill="#043631"/>
<path d="M60.1189 75.1704L40.9202 59.6416V92.9304L60.1189 75.2062V75.1704Z" fill="#0C4C43"/>
<path d="M40.9202 59.6511L60.1189 44.1021V44.0383L40.9431 30.7222L40.9202 30.7424V59.6511Z" fill="#1B6658"/>
<path d="M78.4199 23.4463V54.37L97.5456 41.1519L78.4199 23.4463Z" fill="#EAA926"/>
<path d="M78.4199 111.999L97.6201 95.0342V95.0078L78.4199 84.7974V111.999Z" fill="#D68B13"/>
<path d="M97.6201 68.3334L78.4199 54.1553V84.7694L97.6201 68.4284V68.3334Z" fill="#EAA50C"/>
<path d="M97.6201 41.2188L97.5456 41.1519L78.4199 54.37L97.6201 68.349V41.2188Z" fill="#E09717"/>
<path d="M78.4199 84.7692V84.7972L97.6201 95.0076V68.4282L78.4199 84.7692Z" fill="#E59D1F"/>
<path d="M61.8528 50.0679L61.8642 69.4633L72.7572 56.2436L61.8528 50.0679Z" fill="#043631"/>
<path d="M76.6487 79.3279L76.6588 61.0435L66.2383 73.6812L76.6487 79.3279Z" fill="#E09717"/>
<path d="M79.4551 21.9694L87.4859 15.873L87.4559 29.3432L79.4551 21.9694Z" fill="#E09717"/>
<path d="M81.7344 9.48747L87.4687 5V14.3577L81.7344 9.48747Z" fill="#C1254A"/>
<path d="M96.3013 13.8133L90.9866 9.68994L90.9894 18.4035L96.3013 13.8133Z" fill="#EFB43F"/>
</g>
<defs>
<clipPath id="clip0_32_2">
<rect width="139" height="146" fill="white" transform="translate(0 5)"/>
</clipPath>
</defs>
</svg>
