<?xml version="1.0" encoding="UTF-8"?>
<svg id="Layer_2" data-name="Layer 2" xmlns="http://www.w3.org/2000/svg" viewBox="0 0 568.539 105.312">
  <defs>
    <style>
      .cls-1 {
        fill: #ec2224;
      }

      .cls-2 {
        fill: #2d3a8f;
      }
    </style>
  </defs>
  <g id="Header">
    <g id="Menu">
      <g>
        <path class="cls-2" d="m352.678,45.937v18.153l.002.03h0c.001.018.007.106.017.301.01.195.019.478.019.821,0,.606-.03,1.399-.137,2.219-.163,1.284-.816,3.428-1.136,4.133-1.175,2.696-4.143,6.413-8.004,8.242l-.342.163.561,1.448.347-.083c.031-.008,4.28-.946,8.577-3.28,2.152-1.17,4.326-2.693,5.988-4.665,1.66-1.965,2.799-4.407,2.801-7.302v-.005s.024-20.973.024-20.973l-8.717-.02v.819Z"/>
        <path class="cls-2" d="m435.271,68.202l.003-.002v-.002c.342-.399.527-.807.626-1.123.05-.159.079-.294.096-.395l.017-.125.004-.037v-.01h.001v-.002l.002-.02v-.018s.001-18.37.001-18.37l.008-.191v-.038c.001-1.098-.594-1.855-1.175-2.23h0s-.002-.002-.003-.002h-.001c-.282-.188-.551-.301-.758-.37-.202-.068-.369-.096-.373-.097l-.01-.002-.041-.006-.031-.005-6.922-.023.028,17.639h-31.787c.002-2.22.013-8.469.013-11.96,0-1.075-.001-1.885-.004-2.244-.002-.788-.214-1.452-.567-1.962-.528-.766-1.292-1.126-1.876-1.296-.584-.171-1.048-.172-1.084-.173h-.007c-.005,0-1.106.002-2.778.004-1.672.002-3.913.005-6.188.005s-4.579-.003-6.382-.009c-1.531.001-2.906-.126-3.722-.316-.965-.22-1.476-.501-1.725-.684-.124-.09-.185-.155-.214-.189l-.008-.011s-.137-.218-.238-.275c-.425-.238-.507-.155-.507-.155h-.006c-.508.001-.94.207-1.242.479-.438.393-.64.878-.761,1.233-.119.356-.157.627-.163.671v.005s-.068.466-.068.466c0,0-.022.459-.022.673v.014c-.003,1.914.842,3.329,1.895,4.238,1.049.913,2.268,1.373,3.131,1.615.438.118.972.166,1.435.204.233.017.442.029.594.036l.183.008.057.002h.004s.013.002.013.002h10.548v9.182h-19.841l-.036.78v.004c0,.012-.093,2.089-.182,3.593v.004s-.005.144-.005.144v.022c.001,1.048.641,1.752,1.194,2.106.273.18.536.298.736.373.101.037.186.064.249.082l.077.021.023.006h.002l.01.003.058.013.046.011h64.752c1.213-.013,2.277-.572,2.923-1.295Z"/>
        <path class="cls-2" d="m490.664,47.258v-.02c-.002-.174-.024-.677-.383-1.181-.369-.53-1.09-.923-2.065-.922h-.05s-6.482,0-6.482,0v17.026h-32.518v-29.413h-7.063l-.106.027h-.004s-.003.002-.003.002c-.044.013-.47.122-.927.45-.467.326-.994.944-1.057,1.851v.009s-.002.016-.002.016v31.122h0c.004.169.015.986.574,1.788l.003.005c.504.7,1.411,1.301,2.537,1.314h.007l.122-.002h.008c.3-.015,2.208-.026,4.986-.032,2.79-.006,6.492-.008,10.502-.008,6.267,0,13.283.006,18.735.012,2.725.003,5.057.005,6.71.008,1.653.002,2.619.004,2.623.004h.022c.16-.004,1.009-.009,1.911-.398.455-.198.934-.507,1.307-.989.374-.486.606-1.13.61-1.886.004-.559.005-2.824.005-5.605,0-5.503-.005-12.996-.005-13.148v-.031Z"/>
        <path class="cls-2" d="m522.844,66.572v-.007c-.027-.377-.041-2.452-.04-5.001v-.308h-.408.408c0-2.705.011-5.931.021-8.48.01-2.55.02-4.415.02-4.424v-.048l-.002-.016c-.003-.032-.018-.249-.088-.525-.071-.285-.201-.655-.441-1.038-.493-.814-1.566-1.612-3.246-1.623h-.005l-5.169.023-.03,17.203h-9.809l-.081-17.21-.841.003-5.409.021-.04.004h-.008s-.004.002-.004.002h-.004c-.093.013-.761.087-1.482.502-.761.42-1.568,1.337-1.565,2.742v.051c.003.394.004,2.594.004,5.346,0,2.768-.001,6.099-.002,8.739-.001,2.639-.002,4.581-.002,4.586v.039l.002.02h0c.007.092.05.674.482,1.278.451.65,1.37,1.225,2.744,1.223h.033c.122,0,.245-.004.371-.013.806-.051,3.525-.072,6.74-.072h.128c3.281,0,7.089.019,10.078.037s5.145.037,5.158.037h.101s.095.002.095.002l.179-.085.008-.004.006-.003h.001c.083-.041.53-.265,1.005-.681.494-.436,1.092-1.156,1.099-2.167v-.009l-.004-.137v-.006Z"/>
        <path class="cls-2" d="m552.804,45.571h0s-.002-.002-.003-.002h-.001c-.275-.175-.537-.281-.738-.344-.1-.032-.33-.085-.33-.085l-21.997-.019h-.021s-.008.001-.008.001h.002c-.645.032-1.195.235-1.616.536-.627.448-.934,1.052-1.093,1.509-.15.441-.176.769-.181.848l-.003.02v.037s-.08,15.766-.08,18.003c0,.635.095,1.219.331,1.74.171.381.448.692.768.959l.319.272.384.21c.387.182.779.268,1.101.325.441.074.778.084.798.085h13.917c-.033.057-.051.106-.097.171-.385.559-1.196,1.255-2.211,1.951-1.016.698-2.239,1.411-3.46,2.068-1.227.663-2.574,1.333-3.484,2.073-2.587,2.102-2.765,4-2.726,4.898.013.301.438.159,1.246-.322.799-.476,1.617-.928,1.871-1.055.714-.357,1.22-.604,1.871-.868,2.673-1.082,6.088-2.177,9.662-3.522,3.124-1.174,4.882-2.917,5.822-4.389.941-1.465,1.082-2.654,1.091-2.723v-.004l.003-.025.002-.02v-.042s.049-15.24.049-19.256c0-.448-.001-.755-.002-.892-.006-1.066-.616-1.789-1.186-2.138Zm-7.198,16.84h-9.898v-9.934h9.898v9.934Z"/>
        <path class="cls-2" d="m562.582,32.738c-.88,0-1.698.003-2.184.011-.65.015-1.264.264-1.734.661l-.003.002-.005.005c-.351.313-.508.686-.597.941-.087.261-.115.457-.121.5l-.002.013-.006.035v.063l-.022,34.703.825.017h.006c.116.002,1.959.036,3.596.036.847,0,1.631-.008,2.129-.038h-.003.01c.541-.043,1.17-.128,1.716-.482l.003-.002.005-.004c.484-.336.713-.791.831-1.119.061-.171.095-.319.114-.431l.021-.136.004-.041v-.006s.002-.008.002-.008l.002-.025v-.015s.015-34.663.015-34.663l-.837-.004s-2.006-.01-3.766-.011Z"/>
        <path class="cls-2" d="m556.194,30.48c1.174-.612,2.727-.716,2.761-.716h9.44v-4.017l-.848.007-4.188.035v-1.571h2.675l.051-.006h0c1.099-.117,1.807-.803,2.112-1.475h.001c.309-.652.337-1.277.34-1.583l-.003-.147-.002-.041v-.009h0s-.032-.397-.032-.397l-.031-.377-.782.004c-.006,0-2.732.014-4.912.014-1.083,0-2.036-.004-2.421-.014h-.071s-.018,0-.018,0c-.898,0-1.527.48-1.845.927h0s0,.002-.002.003c-.001,0-.002.002-.002.002h0c-.313.427-.406.827-.417.871l-.011.043-.012.048v4.251c-1.278.469-2.203,1.069-2.801,1.675,0,0-1.637,1.606-1.535,4.753,0,0,.803-1.377,2.552-2.279Z"/>
        <g>
          <polyline class="cls-2" points="4.15 42.055 4.202 42.003 4.15 42.055"/>
          <path class="cls-2" d="m32.935,42.055c-1.297-1.289-2.836-2.299-4.597-3.022-1.773-.729-3.701-1.09-5.762-1.09h-8.046c-2.06,0-3.992.361-5.772,1.089-1.768.723-3.312,1.733-4.609,3.022-1.3,1.29-2.318,2.835-3.048,4.611C.365,48.454,0,50.398,0,52.474v6.262c0,2.091.364,4.039,1.102,5.822.73,1.767,1.748,3.31,3.045,4.607,1.298,1.299,2.843,2.31,4.614,3.026,1.779.72,3.71,1.077,5.769,1.076h8.046c2.059.001,3.987-.356,5.758-1.076,1.763-.717,3.305-1.728,4.602-3.026,1.298-1.297,2.312-2.842,3.036-4.612.729-1.781,1.09-3.727,1.089-5.817v-6.262c0-2.075-.36-4.017-1.089-5.805-.723-1.776-1.739-3.323-3.038-4.614Zm-18.404,3.464h8.046c1.055,0,1.997.171,2.845.503.857.337,1.57.799,2.165,1.395.596.596,1.058,1.309,1.395,2.166.331.846.503,1.804.503,2.891v6.262c0,1.089-.172,2.045-.503,2.892-.336.855-.801,1.567-1.403,2.162-.605.598-1.323,1.061-2.181,1.398-.846.332-1.797.503-2.867.503h-8c-1.071,0-2.02-.171-2.867-.503-.858-.337-1.577-.8-2.181-1.398-.602-.595-1.066-1.308-1.403-2.162-.331-.846-.503-1.803-.503-2.892v-6.262c0-1.087.172-2.045.503-2.891.336-.855.801-1.567,1.403-2.162.605-.597,1.323-1.061,2.181-1.398.847-.332,1.796-.503,2.867-.503Z"/>
          <path class="cls-2" d="m4.149,42.055h0s0,0,0,0Z"/>
          <path class="cls-2" d="m69.284,60.271l-20.308-21.185-.002-.002c-.532-.555-1.213-.927-1.964-1.069l-.073-.014.072.014c-.247-.048-.495-.072-.743-.072-.496,0-.989.098-1.456.289l-.016.006-.016.007c-.664.302-1.228.779-1.646,1.386-.435.623-.662,1.36-.66,2.122v31.055h7.576v-21.868l20.313,21.211-.008-.008c.368.389.812.687,1.305.867.454.167.922.255,1.391.255.512.001,1.014-.097,1.479-.291h0c.457-.189.868-.46,1.212-.805.341-.341.613-.747.81-1.198.207-.473.309-.987.309-1.516v-31.056h-7.576v21.871Z"/>
          <polygon class="cls-2" points="80.762 45.976 93.882 45.976 93.882 72.81 101.458 72.81 101.458 45.976 114.555 45.976 114.555 45.16 114.555 38.4 80.762 38.4 80.762 45.976"/>
          <polygon class="cls-2" points="118.504 72.81 126.079 72.81 126.079 71.993 126.079 38.4 118.504 38.4 118.504 72.81"/>
          <path class="cls-2" d="m162.757,42.512c-1.298-1.289-2.842-2.299-4.609-3.022-1.781-.728-3.712-1.09-5.772-1.089h-16.045c-.524,0-1.033.096-1.502.291-.461.192-.877.47-1.22.824-.339.349-.608.76-.797,1.216-.195.466-.292.967-.291,1.479v26.788c0,.523.095,1.032.291,1.503.19.457.461.867.805,1.211.343.343.755.616,1.213.805.469.197.979.292,1.502.291h16.045c2.06.001,3.991-.36,5.772-1.089,1.768-.723,3.312-1.733,4.61-3.023,1.298-1.288,2.316-2.829,3.047-4.597.738-1.783,1.103-3.73,1.102-5.822v-5.348c0-2.076-.365-4.02-1.102-5.808-.73-1.776-1.749-3.322-3.047-4.611Zm-10.381,22.722h-12.28v-19.258h12.28c1.071,0,2.021.172,2.867.503.858.337,1.577.8,2.181,1.398.601.594,1.065,1.309,1.402,2.172.332.856.503,1.81.504,2.881v5.348c0,1.089-.172,2.045-.503,2.892-.336.855-.801,1.567-1.403,2.162-.605.597-1.323,1.061-2.181,1.398-.846.332-1.797.503-2.867.503Z"/>
          <polygon class="cls-2" points="200.853 59.417 200.853 58.6 200.853 51.795 182.013 51.795 182.013 59.417 200.853 59.417"/>
          <path class="cls-2" d="m174.443,38.692c-.461.192-.876.47-1.22.824-.339.349-.608.76-.797,1.216-.195.466-.292.967-.291,1.479v21.44c0,1.636.295,3.071.928,4.277.601,1.144,1.366,2.102,2.293,2.841.906.725,1.908,1.254,2.986,1.573,1.035.308,2.011.468,2.929.468h22.256v-7.576h-22.21c-.661-.004-1.01-.162-1.228-.377-.22-.222-.373-.563-.378-1.206v-17.675h23.817v-7.576h-27.582c-.524,0-1.033.096-1.502.291Z"/>
          <path class="cls-2" d="m241.346,58.951c-.312-.998-.738-1.899-1.286-2.69-.536-.777-1.159-1.452-1.865-2.014-.687-.549-1.416-1.006-2.182-1.369-.76-.359-1.53-.628-2.31-.802-.761-.171-1.492-.266-2.192-.283h-13.734c-.976-.007-1.587-.265-2.049-.742-.462-.489-.718-1.146-.723-2.145.005-.98.259-1.647.732-2.167.466-.496,1.069-.757,2.04-.765h21.045v-7.576h-21.045c-1.058,0-2.174.189-3.349.55-1.215.374-2.344.984-3.37,1.815-1.049.847-1.914,1.942-2.589,3.254-.707,1.372-1.04,3.011-1.04,4.889s.333,3.52,1.039,4.898c.676,1.321,1.541,2.419,2.594,3.26,1.026.822,2.153,1.426,3.366,1.8,1.175.361,2.292.551,3.349.551h13.668c.458,0,.848.074,1.189.214.349.142.624.332.853.577.235.253.417.549.551.914.131.357.202.761.202,1.227-.005.981-.259,1.635-.726,2.137-.46.481-1.077.742-2.069.748h-23.742v7.576h23.742c.705,0,1.443-.083,2.214-.246.785-.165,1.555-.421,2.308-.764.76-.348,1.492-.792,2.192-1.329.726-.558,1.359-1.233,1.892-2.018.537-.789.962-1.69,1.281-2.692.326-1.031.484-2.171.484-3.413s-.153-2.375-.471-3.398Z"/>
        </g>
        <path class="cls-2" d="m361.778,36.91c0,2.523-2.045,4.568-4.568,4.568s-4.567-2.045-4.567-4.568,2.045-4.568,4.567-4.568,4.568,2.045,4.568,4.568Z"/>
        <path class="cls-2" d="m479.492,36.415c0,2.523-2.045,4.568-4.568,4.568s-4.567-2.045-4.567-4.568,2.045-4.568,4.567-4.568,4.568,2.045,4.568,4.568Z"/>
        <path class="cls-2" d="m490.439,36.415c0,2.523-2.045,4.568-4.568,4.568s-4.567-2.045-4.567-4.568,2.045-4.568,4.567-4.568,4.568,2.045,4.568,4.568Z"/>
        <path class="cls-2" d="m513.118,36.415c0,2.523-2.045,4.568-4.568,4.568s-4.567-2.045-4.567-4.568,2.045-4.568,4.567-4.568,4.568,2.045,4.568,4.568Z"/>
        <path class="cls-2" d="m425.65,78.151c0,2.523-2.045,4.567-4.568,4.567s-4.567-2.044-4.567-4.567,2.045-4.567,4.567-4.567,4.568,2.044,4.568,4.567Z"/>
        <path class="cls-2" d="m437.191,78.151c0,2.523-2.045,4.567-4.568,4.567s-4.567-2.044-4.567-4.567,2.045-4.567,4.567-4.567,4.568,2.044,4.568,4.567Z"/>
        <g>
          <path class="cls-1" d="m354.435,99.167c-.001.942-.462,1.81-1.318,2.503-.849.684-2.083,1.135-3.467,1.134-1.382.001-2.611-.451-3.463-1.134-.859-.693-1.324-1.562-1.325-2.503-.002-.861.315-1.869.82-2.481.516-.619,1.248-1.09,2.24-1.315l.155-.021,8.917-.053v-1.245c0-1.309-.354-2.457-.99-3.37-.962-1.382-2.442-2.151-3.906-2.572-1.473-.422-2.992-.533-4.266-.533-1.778,0-3.121.222-3.149.224l-.124.014.04,2.444.742-.078h.001s.004-.001.004-.001c.198-.03,1.072-.098,2.368-.098h.117s.104,0,.104,0c1.451,0,3.194.215,4.403.806.618.302,1.1.678,1.434,1.165.158.229.28.503.377.812l-6.322.187-.391.054-.053.003-.019.002-.063.021c-1.56.347-2.86,1.145-3.737,2.223-.894,1.079-1.365,2.421-1.365,3.81,0,1.759.906,3.333,2.262,4.413,1.359,1.089,3.189,1.732,5.187,1.732s3.831-.643,5.189-1.732c1.354-1.077,2.259-2.646,2.259-4.401v-.01l.002-.138h-2.665v.136Z"/>
          <polygon class="cls-1" points="358.825 95.299 358.962 95.299 361.423 95.299 361.423 92.61 358.825 92.61 358.825 95.299"/>
          <polygon class="cls-1" points="377.886 95.415 378.024 95.415 380.48 95.415 380.48 92.724 377.886 92.724 377.886 95.415"/>
          <polygon class="cls-1" points="403.331 80.3 403.194 80.3 400.734 80.3 400.734 82.992 403.331 82.992 403.331 80.3"/>
          <polygon class="cls-1" points="400.623 83.03 400.485 83.03 398.025 83.03 398.025 85.722 400.623 85.722 400.623 83.03"/>
          <polygon class="cls-1" points="406.013 83 405.876 83 403.414 83 403.414 85.692 406.013 85.692 406.013 83"/>
          <polygon class="cls-1" points="418.169 91.257 418.169 91.393 418.169 93.948 424.085 93.948 424.085 91.257 418.169 91.257"/>
          <path class="cls-1" d="m374.212,88.248h0c-.872-.53-1.852-.746-2.772-.746-1.272.013-2.461.386-3.317,1.142-.708.653-1.09,1.435-1.309,2.163-.216.733-.271,1.441-.271,2.016,0,.319.018.586.039.811l-.135.06-.003.002h-.003c-.626.316-1.304.772-1.83,1.45-.537.682-.886,1.581-.906,2.619-.026,1.104-.036,2.089-.036,2.921,0,1.656.036,2.685.036,2.688v.139l2.661-.071-.003-.136s-.006-.245-.015-.695c-.007-.453-.018-1.112-.018-1.924s.011-1.788.033-2.873c.022-.602.189-.97.422-1.28.344-.451.936-.77,1.485-.948.267-.085.517-.146.687-.171l.191-.033h7.143v-4.478l-.065-.185c-.41-1.097-1.139-1.945-2.016-2.471Zm-5.001,4.727l-.005-.152c0-.433.041-.942.184-1.39.129-.459.341-.837.619-1.089.08-.083.273-.189.518-.275l.018-.007.026-.008c.25-.083.549-.146.849-.143h.02c.469,0,.915.11,1.295.341.347.212.658.535.897,1.086v1.636h-4.42Z"/>
          <path class="cls-1" d="m406.436,92.994c-1.495-.196-2.274-.623-2.706-.97-.272-.229-.418-.44-.488-.576l-.071-.155-.003-.013-.018-.07v-3.64h-2.703v5.313c-1.521-.211-2.309-.662-2.746-1.035-.28-.236-.426-.464-.507-.615l-.042-.098v-3.551h-2.656v7.778c-.007,1.154-.491,2.179-1.304,2.945-.808.753-1.919,1.225-3.169,1.229-1.245-.004-2.35-.476-3.169-1.229-.81-.766-1.297-1.791-1.303-2.945.006-1.152.493-2.181,1.304-2.942.818-.76,1.923-1.23,3.168-1.23h.137v-2.547h-.137c-1.958,0-3.742.747-5.028,1.958-1.288,1.207-2.096,2.889-2.096,4.743v.037c0,1.854.807,3.538,2.096,4.742,1.286,1.213,3.07,1.957,5.028,1.957s3.742-.744,5.032-1.957c1.294-1.207,2.098-2.896,2.098-4.753v-.97c1.107.54,2.606.937,4.621.972l1.237.024.14.003v-.98c1.095.521,2.58.906,4.587.935l1.218.023.139.002v-7.797h-2.659v5.409Z"/>
          <polygon class="cls-1" points="479.055 101.058 481.926 101.058 481.926 100.786 481.926 98.096 479.055 98.096 479.055 101.058"/>
          <polygon class="cls-1" points="482.902 101.031 485.777 101.031 485.777 100.759 485.777 98.071 482.902 98.071 482.902 101.031"/>
          <polygon class="cls-1" points="502.781 82.518 502.781 79.826 499.909 79.826 499.909 82.79 502.781 82.79 502.781 82.518"/>
          <polygon class="cls-1" points="499.821 85.49 499.821 82.8 496.946 82.8 496.946 85.762 499.821 85.762 499.821 85.49"/>
          <polygon class="cls-1" points="505.721 85.515 505.721 82.823 502.85 82.823 502.85 85.787 505.721 85.787 505.721 85.515"/>
          <polygon class="cls-1" points="527.479 85.31 527.479 83.407 524.61 83.407 524.61 85.582 527.479 85.582 527.479 85.31"/>
          <polygon class="cls-1" points="546.788 85.289 546.788 83.387 543.914 83.387 543.914 85.562 546.788 85.562 546.788 85.289"/>
          <polygon class="cls-1" points="550.268 85.289 550.268 83.387 547.392 83.387 547.392 85.562 550.268 85.562 550.268 85.289"/>
          <polygon class="cls-1" points="566.734 98.328 566.734 96.43 563.861 96.43 563.861 98.601 566.734 98.601 566.734 98.328"/>
          <polygon class="cls-1" points="562.344 99.53 562.344 101.99 568.238 101.99 568.238 101.718 568.238 99.53 562.344 99.53"/>
          <polygon class="cls-1" points="560.452 85.289 560.452 83.387 557.573 83.387 557.573 85.562 560.452 85.562 560.452 85.289"/>
          <polygon class="cls-1" points="460.714 85.145 463.714 85.145 463.714 84.873 463.714 82.179 460.714 82.179 460.714 85.145"/>
          <path class="cls-1" d="m505.397,87.721v4.837c-1.36-.225-2.061-.672-2.469-1.038-.251-.237-.39-.465-.459-.612l-.063-.154-.003-.012-.016-.068v-3.214h-2.98v5.061c-1.397-.225-2.128-.674-2.528-1.038-.265-.241-.399-.459-.473-.61l-.04-.096v-3.345h-2.936v3.463h-.089l.061.322.029.125v1.381h-7.131c-.083-.018-.252-.082-.459-.231-.344-.247-.754-.692-1.029-1.059-.084-.117-.157-.222-.222-.317l-.033-4.392-2.934.023.033,5.127-.019.011.019.027.004.721-5.703-.078v-.082c.001-.71-.084-1.175-.097-1.245-.083-1.338-.658-2.554-1.548-3.41-.951-.932-2.256-1.493-3.666-1.493-1.418-.001-2.716.561-3.673,1.495-.953.922-1.576,2.25-1.576,3.721,0,1.36.538,2.6,1.368,3.505l.007.01.514.472.08.073,4.753-.014c-.714,1.15-1.981,2.408-4.484,3.387l-.178.07.06,2.993.337-.086c3.474-.891,5.774-3.049,6.837-4.854.3-.502.515-.999.69-1.481l9.239-.04-.002-.273-.002-.264c.37.201.789.368,1.277.444l.006.002.095.01h.015s10.357.001,10.357.001v-.981c1.113.53,2.591.901,4.501.936l1.24.027.281.006v-.95c1.097.54,2.555.923,4.452.955l1.219.025.281.004v-8.071h-2.943v.272Zm-36.82,4.739c-.149-.285-.241-.589-.244-.919.004-.563.228-1.066.643-1.473.409-.399.995-.665,1.669-.665.668,0,1.26.267,1.67.665.416.407.638.91.639,1.476v.158l.032.149.004.033c.012.089.034.298.034.592l-.002.043-4.445-.058Z"/>
          <path class="cls-1" d="m442.902,95.477c0,1.052-.454,1.996-1.219,2.704-.769.708-1.833,1.152-3.028,1.152s-2.256-.444-3.022-1.152c-.77-.709-1.226-1.652-1.227-2.704.001-1.055.457-1.997,1.226-2.709.768-.706,1.827-1.155,3.024-1.155h.274v-2.814l-.269-.005h-.016c-1.957,0-3.749.737-5.047,1.933-1.304,1.201-2.126,2.89-2.126,4.75s.822,3.547,2.126,4.744c1.3,1.2,3.096,1.934,5.057,1.934s3.757-.735,5.061-1.934c1.298-1.195,2.123-2.881,2.123-4.733v-12.144h-2.937v12.133Z"/>
          <path class="cls-1" d="m460.752,87.685v4.951h-7.125c-.549-.001-.862-.099-1.062-.195-.281-.145-.358-.276-.447-.464l-.002-.004v-.003s-.062-.195-.062-.195v-.004s-.007-.029-.007-.029v-8.159h-2.934v8.301l.008.028c.01.174.061.959.654,1.815.318.448.797.905,1.461,1.225h0c.656.33,1.459.503,2.382.503h10.066v-8.041h-2.933v.272Z"/>
          <path class="cls-1" d="m524.61,87.685l.004,5.06h-6.629c-.67-.086-1.112-.251-1.421-.428-.47-.288-.672-.594-.804-.915-.121-.293-.144-.589-.143-.656v-.005h0v-7.301h-2.935v7.284s-.001.005-.001.005c.001.365.05,1.365.737,2.439.353.536.869,1.078,1.597,1.5.709.418,1.598.713,2.659.829l.075.014.025.005h9.771v-8.103h-2.935v.272Z"/>
          <path class="cls-1" d="m557.611,86.859v5.733c-1.024-.011-2.417-.023-3.734-.023-1.228,0-2.348.014-3.042.038h-.035c-.154,0-.352-.048-.596-.187-.352-.196-.759-.591-1.032-.931l-.09-.115v-4.762h-2.932v5.98c-1.062-.011-2.523-.023-3.908-.023-1.264,0-2.421.014-3.131.038h-.048c-.169.006-.737-.104-.938-.227-.159-.083-.599-.436-.812-.723-.118-.153-.196-.303-.242-.412l-.05-.128-.01-.032v-.006s-.014-.05-.014-.05l-.005-.008v-4.409h-2.934v7.051l.017.104v.071c.007.369-.058,1.897-.574,2.681-.53.827-1.398,1.701-3.373,2.277-.196.057-.405.111-.623.156l-.267.055.601,2.974.273-.06c.276-.062.539-.128.798-.203,2.548-.707,4.19-2.095,5.077-3.585.676-1.116.915-2.203.998-3.07l.031.02c.571.315,1.264.561,2.046.561h.008l.149-.003h.013c.613-.027,1.77-.038,3.01-.038,1.247,0,2.586.012,3.613.018,1.015.013,1.715.019,1.746.02l1.201.02.28.004v-.44c.496.24,1.074.419,1.719.419h.003l.143-.003h.019c.587-.027,1.709-.038,2.912-.038s2.5.012,3.494.018c.996.013,1.689.02,1.689.02l1.208.02.279.004v-9.08h-2.936v.272Z"/>
          <polygon class="cls-1" points="566.728 95.261 566.728 83.517 563.892 83.517 563.892 95.533 566.728 95.533 566.728 95.261"/>
          <polygon class="cls-1" points="563.861 98.601 566.214 100.288 567.414 99.828 565.082 98.127 563.861 98.601"/>
        </g>
        <g>
          <polygon class="cls-1" points="1.149 83.92 1.149 97.351 3.697 97.351 3.697 83.512 1.149 83.512 1.149 83.92"/>
          <polygon class="cls-1" points="25.793 83.92 25.793 86.107 28.857 86.107 28.857 97.351 31.405 97.351 31.405 86.107 34.479 86.107 34.479 83.512 25.793 83.512 25.793 83.92"/>
          <polygon class="cls-1" points="39.035 83.92 39.035 97.351 46.984 97.351 46.984 94.777 41.582 94.777 41.582 91.116 46.984 91.116 46.984 88.541 41.582 88.541 41.582 86.107 46.984 86.107 46.984 83.512 39.035 83.512 39.035 83.92"/>
          <path class="cls-1" d="m59.403,90.225c.624-.734.947-1.614.944-2.575.007-1.202-.505-2.246-1.463-3.002-.957-.768-2.191-1.137-3.644-1.136h-3.196v13.839h2.568v-5.021l3.35,5.021h2.996l-3.859-5.744c.978-.298,1.763-.745,2.303-1.382Zm-4.791-4.316c.754.016,1.343.074,1.725.17.439.112.76.306,1.006.589.231.27.353.606.356,1.085-.011.652-.223,1.041-.718,1.364-.478.304-1.277.489-2.368.504v-3.712Z"/>
          <polygon class="cls-1" points="75.078 91.834 65.55 83.516 65.55 97.351 68.118 97.351 68.118 89.13 77.646 97.392 77.646 83.512 75.078 83.512 75.078 91.834"/>
          <path class="cls-1" d="m87.834,83.251l-6.29,14.1h2.717l1.479-3.333h4.946l1.496,3.333h2.732l-6.713-14.922-.367.822Zm.366,5.225l1.455,3.244h-2.894l1.439-3.244Z"/>
          <polygon class="cls-1" points="97.203 83.92 97.203 86.107 100.268 86.107 100.268 97.351 102.815 97.351 102.815 86.107 105.89 86.107 105.89 83.512 97.203 83.512 97.203 83.92"/>
          <polygon class="cls-1" points="110.556 83.92 110.556 97.351 113.104 97.351 113.104 83.512 110.556 83.512 110.556 83.92"/>
          <path class="cls-1" d="m125.68,83.103c-2.06-.003-3.866.714-5.336,2.124-1.473,1.403-2.234,3.145-2.229,5.128-.004,2.045.74,3.832,2.194,5.267,1.449,1.439,3.249,2.173,5.31,2.169,2.086.004,3.895-.723,5.335-2.154,1.446-1.424,2.185-3.218,2.181-5.281.004-1.962-.75-3.698-2.208-5.11-1.453-1.419-3.23-2.145-5.246-2.142Zm.07,12.011c-1.425-.003-2.581-.452-3.552-1.365-.967-.921-1.43-1.99-1.435-3.312.004-1.302.456-2.375,1.401-3.313.95-.931,2.045-1.381,3.375-1.385,1.41.004,2.549.451,3.504,1.363.95.919,1.407,1.997,1.412,3.335-.004,1.281-.452,2.346-1.392,3.288-.946.936-2.02,1.385-3.313,1.388Z"/>
          <path class="cls-1" d="m160.327,83.251l-6.291,14.1h2.718l1.478-3.333h4.946l1.496,3.333h2.732l-6.713-14.922-.367.822Zm.366,5.225l1.454,3.244h-2.894l1.44-3.244Z"/>
          <polygon class="cls-1" points="174.316 83.512 171.768 83.512 171.768 83.92 171.768 97.351 178.514 97.351 178.514 94.777 174.316 94.777 174.316 83.512"/>
          <polygon class="cls-1" points="186.714 91.06 186.714 93.206 192.947 93.206 192.947 90.652 186.714 90.652 186.714 91.06"/>
          <polygon class="cls-1" points="202.523 83.92 202.523 97.351 205.091 97.351 205.091 91.116 210.472 91.116 210.472 88.541 205.07 88.541 205.07 86.107 210.472 86.107 210.472 83.512 202.523 83.512 202.523 83.92"/>
          <polygon class="cls-1" points="214.885 83.512 214.885 83.92 214.885 86.107 220.422 86.107 214.303 97.351 224.271 97.351 224.271 94.777 218.518 94.777 224.673 83.512 214.885 83.512"/>
          <path class="cls-1" d="m236.127,85.759c1.088-.001,2.306.322,3.656.991l.582.288v-2.941l-.248-.104c-1.39-.59-2.749-.891-4.071-.891-2.054-.003-3.853.719-5.311,2.137-1.464,1.41-2.218,3.162-2.213,5.156-.004,2.03.761,3.807,2.249,5.235,1.482,1.435,3.31,2.165,5.397,2.16,1.423,0,2.758-.33,3.982-.988l.214-.116v-2.977l-.602.342c-1.237.704-2.382,1.041-3.443,1.041-1.498-.003-2.692-.45-3.667-1.348-.971-.905-1.436-1.978-1.441-3.329.005-1.324.46-2.391,1.411-3.303.954-.905,2.094-1.351,3.505-1.354Z"/>
          <polygon class="cls-1" points="18.672 91.818 9.143 83.5 9.143 97.335 11.711 97.335 11.711 89.113 21.24 97.376 21.24 83.496 18.672 83.496 18.672 91.818"/>
          <polygon class="cls-1" points="147.616 91.854 138.088 83.536 138.088 97.372 140.656 97.372 140.656 89.151 150.184 97.412 150.184 83.532 147.616 83.532 147.616 91.854"/>
        </g>
        <path class="cls-2" d="m335.93,48.297c-1.767-.486-3.768-.835-5.99-.833-2.222-.002-4.223.347-5.989.833-.902.248-1.741.529-2.535.816-.761.276-1.48.559-2.156.824-1.378.543-2.588,1.011-3.751,1.331-1.167.32-2.281.507-3.58.509-1.297-.002-2.413-.189-3.578-.509-1.163-.319-2.373-.788-3.751-1.331-1.382-.541-2.924-1.153-4.693-1.64-1.767-.486-3.766-.835-5.989-.833-2.222-.002-4.221.347-5.986.833-1.769.486-3.31,1.099-4.692,1.64-1.378.543-2.589,1.011-3.751,1.331-1.166.32-2.281.507-3.579.509-1.299-.002-2.413-.189-3.579-.509-.171-.047-.347-.104-.52-.157-1.006-.308-2.057-.711-3.231-1.174-1.381-.541-2.922-1.153-4.691-1.64-1.766-.486-3.767-.835-5.989-.833-1.462-.001-2.817.159-4.083.4.313,3.018.94,5.941,1.841,8.743.715-.13,1.443-.208,2.243-.208,1.299.002,2.414.188,3.579.508,1.163.319,2.373.788,3.751,1.331,1.382.541,2.922,1.152,4.691,1.639,1.767.487,3.767.836,5.989.833.464,0,.912-.023,1.357-.051,1.685-.106,3.235-.398,4.633-.782,1.768-.487,3.31-1.098,4.691-1.639,1.378-.542,2.589-1.012,3.752-1.331,1.166-.32,2.28-.506,3.577-.508,1.299.002,2.415.188,3.58.508,1.163.319,2.373.788,3.751,1.331,1.382.541,2.924,1.152,4.693,1.639,1.765.487,3.766.836,5.987.833,1.337.001,2.581-.134,3.753-.34.78-.136,1.531-.299,2.237-.493,1.769-.487,3.308-1.098,4.69-1.639,1.378-.543,2.59-1.012,3.751-1.331,1.167-.32,2.281-.506,3.581-.508,1.299.002,2.413.188,3.578.508,1.163.319,2.373.788,3.751,1.331.104.04.215.083.319.123,1.031-2.79,1.78-5.716,2.218-8.742-1.169-.454-2.445-.929-3.876-1.322Z"/>
        <path class="cls-2" d="m329.298,62.816c-2.224-.002-4.223.347-5.99.832-1.769.486-3.308,1.098-4.69,1.64-1.378.542-2.59,1.01-3.751,1.33-1.167.32-2.281.507-3.581.509-1.299-.002-2.413-.189-3.58-.509-.047-.013-.094-.03-.143-.044-1.118-.317-2.286-.765-3.608-1.286-1.382-.542-2.921-1.155-4.69-1.64-1.767-.486-3.768-.835-5.99-.832-2.222-.002-4.222.347-5.989.832-1.715.471-3.212,1.06-4.561,1.589-.043.017-.088.034-.13.051-1.378.542-2.588,1.01-3.751,1.33-1.166.32-2.281.507-3.58.509-1.298-.002-2.413-.189-3.579-.509-1.163-.32-2.373-.788-3.75-1.33-1.383-.542-2.923-1.155-4.692-1.64-1.504-.414-3.187-.713-5.023-.796,2.178,4.312,5.053,8.209,8.481,11.545.804.293,1.657.579,2.575.831,1.766.487,3.766.836,5.989.833,2.222.002,4.223-.347,5.989-.833,1.769-.487,3.31-1.098,4.691-1.639,1.378-.543,2.59-1.012,3.751-1.331,1.166-.32,2.28-.506,3.579-.508,1.299.002,2.413.188,3.581.508,1.161.319,2.371.788,3.748,1.331,1.384.542,2.924,1.154,4.693,1.639,1.767.487,3.768.836,5.989.833,2.222.002,4.223-.347,5.987-.833,1.769-.487,3.311-1.098,4.693-1.639,1.378-.543,2.588-1.012,3.751-1.331,1.167-.32,2.281-.506,3.581-.508.115,0,.221.009.332.013,2.158-2.481,4.04-5.204,5.592-8.131-1.752-.476-3.727-.819-5.924-.816Z"/>
        <path class="cls-2" d="m314.276,81.939c-1.167.317-2.288.503-3.591.505-1.301-.002-2.422-.188-3.589-.505-1.165-.316-2.377-.779-3.755-1.316-1.382-.534-2.921-1.139-4.688-1.618-1.765-.481-3.759-.824-5.977-.823-2.219,0-4.213.342-5.978.823-1.767.479-3.307,1.084-4.689,1.619-1.378.537-2.589,1-3.754,1.316-.237.065-.472.119-.708.172,5.832,2.92,12.407,4.572,19.374,4.572,8.698,0,16.791-2.573,23.58-6.984-.878.307-1.703.625-2.471.923-1.378.536-2.59.999-3.755,1.315Z"/>
        <path class="cls-1" d="m340.227,44.331c.009-.331.038-.656.038-.988,0-23.938-19.406-43.343-43.343-43.343-23.52,0-42.649,18.736-43.311,42.095,1.91-.415,5.822-.821,11.005.96,2.6.893,4.599,1.538,6.092,2-.033-.533-.061-1.067-.061-1.608,0-14.195,11.508-25.703,25.702-25.703s25.704,11.508,25.704,25.703c0,.265-.015.525-.023.788,3.336-1.079,10.263-2.564,18.198.097Z"/>
      </g>
    </g>
  </g>
</svg>